# xmcd
#
# Track frame offsets: 
#        150
#        15334
#        28261
#        65889
#        83505
#        88814
#        107911
#        123765
#        144620
#        162902
#        176761
#        191328
#        200870
#        213554
#
# Disc length: 3096 seconds
#
# Revision: 0
# Processed by: cddbd v1.5.2PL0 Copyright (c) Steve Scherf et al.
# Submitted via: ExactAudioCopy v0.95b4
#
DISCID=c80c160e
DTITLE=Jiggy Djé - De ark de triomf
DYEAR=2009
DGENRE=Hip-Hop
TTITLE0=De Hollandse droom
TTITLE1=Loop met me
TTITLE2=De ark de triomf
TTITLE3=Superster (feat. SirOJ)
TTITLE4=Bericht van de sponsor: Ik ben er nog
TTITLE5=Mama zei (feat. Turk)
TTITLE6=Zeggut (feat. FS Green)
TTITLE7=Regen op warm asfalt
TTITLE8=Ik heb je (feat. Pete Philly)
TTITLE9=DOENIEJIGGY
TTITLE10=Je weet wel wie (feat. Hef)
TTITLE11=Bericht van de sponsor: Aanraken is kopen
TTITLE12=Moevuh (feat. SpaceKees and Turk)
TTITLE13=Hey DJ! (feat. SirOJ)
EXTD=
EXTT0=
EXTT1=
EXTT2=
EXTT3=
EXTT4=
EXTT5=
EXTT6=
EXTT7=
EXTT8=
EXTT9=
EXTT10=
EXTT11=
EXTT12=
EXTT13=
PLAYORDER=
